<?xml version="1.0" standalone="no"?>
<!DOCTYPE svg PUBLIC "-//W3C//DTD SVG 20010904//EN"
 "http://www.w3.org/TR/2001/REC-SVG-20010904/DTD/svg10.dtd">
<svg version="1.0" xmlns="http://www.w3.org/2000/svg"
 width="96.000000pt" height="96.000000pt" viewBox="0 0 96.000000 96.000000"
 preserveAspectRatio="xMidYMid meet">
<metadata>
Created by potrace 1.14, written by Peter Selinger 2001-2017
</metadata>
<g transform="translate(0.000000,96.000000) scale(0.100000,-0.100000)"
fill="#000000" stroke="none">
<path d="M420 930 c0 -5 -13 -25 -30 -43 -16 -19 -30 -39 -30 -44 0 -5 15 -23
33 -40 25 -24 44 -32 90 -37 52 -6 57 -5 57 13 0 18 -5 19 -50 14 -44 -5 -54
-3 -75 17 -33 31 -32 43 11 78 20 17 33 35 30 41 -9 14 -36 15 -36 1z"/>
<path d="M522 910 c-13 -16 -30 -30 -38 -30 -21 0 -14 -34 9 -38 11 -2 20 6
26 21 6 14 19 28 31 32 12 4 20 13 18 23 -5 26 -23 24 -46 -8z"/>
<path d="M266 881 c-4 -5 -4 -28 0 -49 5 -31 19 -52 63 -95 54 -53 58 -55 124
-60 62 -6 67 -5 67 13 0 18 -5 19 -61 13 l-60 -6 -55 54 c-50 49 -55 57 -52
93 3 38 -13 59 -26 37z"/>
<path d="M596 881 c-3 -5 -2 -21 4 -36 5 -14 10 -58 10 -97 0 -66 -2 -72 -34
-104 -32 -32 -38 -34 -102 -34 l-67 0 -59 -58 -58 -59 -2 -136 c-1 -76 -2
-147 -2 -159 -1 -14 5 -23 13 -23 12 0 14 25 12 151 l-3 151 55 57 55 56 70 0
c69 0 70 1 106 40 l36 40 0 100 c0 55 0 103 1 108 0 11 -28 14 -35 3z"/>
<path d="M177 773 c4 -47 12 -75 25 -90 18 -19 20 -33 17 -140 -3 -99 -1 -118
11 -118 13 0 14 20 12 125 -3 109 -6 128 -24 147 -18 19 -20 31 -15 83 5 54 3
60 -14 60 -17 0 -18 -6 -12 -67z"/>
<path d="M740 823 c0 -5 -11 -21 -25 -37 -18 -21 -25 -41 -25 -71 0 -43 -23
-79 -65 -102 -11 -7 -16 -17 -12 -27 10 -25 23 -19 46 18 12 19 28 37 36 40
10 4 15 20 15 52 0 38 5 51 30 74 32 30 40 60 15 60 -8 0 -15 -3 -15 -7z"/>
<path d="M84 769 c-9 -15 3 -53 29 -93 24 -39 57 -48 57 -16 0 11 -6 20 -13
20 -25 0 -48 36 -42 62 5 18 2 27 -9 31 -8 3 -18 2 -22 -4z"/>
<path d="M274 705 c-7 -18 3 -35 22 -35 22 0 17 -40 -8 -60 -19 -15 -21 -21
-10 -32 11 -11 17 -9 33 11 23 28 25 73 3 106 -18 28 -32 32 -40 10z"/>
<path d="M820 707 c0 -7 -37 -49 -83 -95 l-82 -82 -107 0 -106 0 -46 -45 -45
-45 -3 -198 c-2 -108 -2 -200 0 -204 1 -4 8 -5 15 -2 9 3 11 52 9 198 l-3 193
42 41 42 42 106 0 106 0 85 85 c47 47 90 85 97 85 7 0 13 9 13 20 0 13 -7 20
-20 20 -11 0 -20 -6 -20 -13z"/>
<path d="M50 650 c0 -11 6 -20 13 -20 7 0 30 -17 50 -38 35 -36 37 -41 37
-106 0 -65 1 -70 35 -101 l36 -32 -2 -142 c0 -78 2 -145 5 -148 3 -3 12 -3 20
0 11 4 14 15 10 34 -3 15 -6 81 -7 145 l-2 117 -37 38 c-36 37 -38 43 -38 102
0 60 -2 64 -47 117 -50 57 -73 67 -73 34z"/>
<path d="M888 635 c-3 -3 -3 -26 0 -51 4 -39 1 -49 -24 -75 -15 -16 -34 -29
-41 -29 -7 0 -13 -9 -13 -20 0 -13 7 -20 20 -20 11 0 20 5 20 12 0 7 13 26 29
43 22 23 30 43 36 88 5 45 4 57 -8 57 -7 0 -16 -2 -19 -5z"/>
<path d="M753 513 l-61 -65 -84 5 c-45 4 -92 7 -103 9 -14 2 -21 -3 -23 -18
-3 -20 0 -20 110 -16 l113 4 65 62 c36 33 66 67 68 74 8 28 -27 6 -85 -55z"/>
<path d="M53 544 c-3 -9 3 -21 16 -30 18 -13 20 -21 15 -56 -6 -36 -5 -40 12
-36 15 3 18 11 16 43 -6 68 -43 119 -59 79z"/>
</g>
</svg>
